<?xml version="1.0" encoding="UTF-8" standalone="no" ?>
<!DOCTYPE svg PUBLIC "-//W3C//DTD SVG 1.1//EN" "http://www.w3.org/Graphics/SVG/1.1/DTD/svg11.dtd">
<svg xmlns="http://www.w3.org/2000/svg" xmlns:xlink="http://www.w3.org/1999/xlink" version="1.1" width="500" height="500" viewBox="0 0 500 500" xml:space="preserve">
<desc>Created with Fabric.js 4.6.0</desc>
<defs>
</defs>
<g transform="matrix(0.52 0 0 3.45 458.01 250.06)" id="mlM9EnMyik1gR6WawKMjP"  >
<path style="stroke: rgb(178,228,119); stroke-width: 0; stroke-dasharray: none; stroke-linecap: butt; stroke-dashoffset: 0; stroke-linejoin: miter; stroke-miterlimit: 4; fill: rgb(167,167,167); fill-rule: nonzero; opacity: 1;" vector-effect="non-scaling-stroke"  transform=" translate(0, 0)" d="M -70.99781 -70.99781 L 70.9978 -70.99781 L 70.9978 70.9978 L -70.99781 70.9978 z" stroke-linecap="round" />
</g>
<g transform="matrix(0 0.67 -3.45 0 250 313.09)" id="rgULXINXTe6ImqjOG2gJh"  >
<path style="stroke: rgb(178,228,119); stroke-width: 0; stroke-dasharray: none; stroke-linecap: butt; stroke-dashoffset: 0; stroke-linejoin: miter; stroke-miterlimit: 4; fill: rgb(167,167,167); fill-rule: nonzero; opacity: 1;" vector-effect="non-scaling-stroke"  transform=" translate(0, 0)" d="M -70.99781 -70.99781 L 70.9978 -70.99781 L 70.9978 70.9978 L -70.99781 70.9978 z" stroke-linecap="round" />
</g>
<g transform="matrix(0 2.22 -0.88 0 250 203.09)" id="RS4JnCgdphBDV3uyUeqAG"  >
<path style="stroke: rgb(178,228,119); stroke-width: 0; stroke-dasharray: none; stroke-linecap: butt; stroke-dashoffset: 0; stroke-linejoin: miter; stroke-miterlimit: 4; fill: rgb(167,167,167); fill-rule: nonzero; opacity: 1;" vector-effect="non-scaling-stroke"  transform=" translate(0, 0)" d="M -70.99781 -70.99781 L 70.9978 -70.99781 L 70.9978 70.9978 L -70.99781 70.9978 z" stroke-linecap="round" />
</g>
<g transform="matrix(0.52 0 0 3.45 41.95 250)" id="CyvudffT1vhWvLzNF5ztY"  >
<path style="stroke: rgb(178,228,119); stroke-width: 0; stroke-dasharray: none; stroke-linecap: butt; stroke-dashoffset: 0; stroke-linejoin: miter; stroke-miterlimit: 4; fill: rgb(167,167,167); fill-rule: nonzero; opacity: 1;" vector-effect="non-scaling-stroke"  transform=" translate(0, 0)" d="M -70.99781 -70.99781 L 70.9978 -70.99781 L 70.9978 70.9978 L -70.99781 70.9978 z" stroke-linecap="round" />
</g>
<g transform="matrix(1.56 0 0 3.75 458.01 64.82)" id="T9aAiXeTjOUD-EHcD0HNM"  >
<path style="stroke: rgb(4,100,20); stroke-width: 0; stroke-dasharray: none; stroke-linecap: butt; stroke-dashoffset: 0; stroke-linejoin: miter; stroke-miterlimit: 4; fill: rgb(56,181,75); fill-rule: nonzero; opacity: 1;" vector-effect="non-scaling-stroke"  transform=" translate(0, 0)" d="M -11.78728 -11.78728 L 11.78728 -11.78728 L 11.78728 11.78728 L -11.78728 11.78728 z" stroke-linecap="round" />
</g>
<g transform="matrix(1.56 0 0 3.75 458.04 433.67)" id="PZvpYWm95fGFPliPLpdm3"  >
<path style="stroke: rgb(4,100,20); stroke-width: 0; stroke-dasharray: none; stroke-linecap: butt; stroke-dashoffset: 0; stroke-linejoin: miter; stroke-miterlimit: 4; fill: rgb(56,181,75); fill-rule: nonzero; opacity: 1;" vector-effect="non-scaling-stroke"  transform=" translate(0, 0)" d="M -11.78728 -11.78728 L 11.78728 -11.78728 L 11.78728 11.78728 L -11.78728 11.78728 z" stroke-linecap="round" />
</g>
<g transform="matrix(1.56 0 0 3.75 41.04 66.59)" id="e8FVRXs30ff7zyR2H04Ud"  >
<path style="stroke: rgb(4,100,20); stroke-width: 0; stroke-dasharray: none; stroke-linecap: butt; stroke-dashoffset: 0; stroke-linejoin: miter; stroke-miterlimit: 4; fill: rgb(56,181,75); fill-rule: nonzero; opacity: 1;" vector-effect="non-scaling-stroke"  transform=" translate(0, 0)" d="M -11.78728 -11.78728 L 11.78728 -11.78728 L 11.78728 11.78728 L -11.78728 11.78728 z" stroke-linecap="round" />
</g>
<g transform="matrix(1.56 0 0 3.75 41.04 434.67)" id="GOioX0N0lsSfdxYS3iRsh"  >
<path style="stroke: rgb(4,100,20); stroke-width: 0; stroke-dasharray: none; stroke-linecap: butt; stroke-dashoffset: 0; stroke-linejoin: miter; stroke-miterlimit: 4; fill: rgb(56,181,75); fill-rule: nonzero; opacity: 1;" vector-effect="non-scaling-stroke"  transform=" translate(0, 0)" d="M -11.78728 -11.78728 L 11.78728 -11.78728 L 11.78728 11.78728 L -11.78728 11.78728 z" stroke-linecap="round" />
</g>
<g transform="matrix(1.33 0 0 1.33 132.79 54.26)" id="AhvMTUYZxjlKujgovwd0q"  >
<g style="" vector-effect="non-scaling-stroke"   >
		<g transform="matrix(1 0 0 1 0 0)" id="h2tiClijv_k2NVg-Ivj_2"  >
<path style="stroke: none; stroke-width: 1; stroke-dasharray: none; stroke-linecap: butt; stroke-dashoffset: 0; stroke-linejoin: miter; stroke-miterlimit: 4; fill: rgb(179,181,179); fill-rule: nonzero; opacity: 1;" vector-effect="non-scaling-stroke"  transform=" translate(-39.96, -40)" d="M 74.2 31.8 L 67.5 31.8 C 66.2 31.8 65.1 31.1 64.6 29.8 C 64.1 28.5 64.3 27.3 65.3 26.3 L 70.1 21.5 C 72.39999999999999 19.2 72.39999999999999 15.4 70.1 13.1 L 67 10 C 65.9 8.9 64.4 8.3 62.8 8.3 C 61.19999999999999 8.3 59.699999999999996 8.9 58.599999999999994 10 L 53.8 14.8 C 52.9 15.700000000000001 51.599999999999994 16 50.3 15.5 C 49.099999999999994 15 48.3 13.9 48.3 12.6 L 48.3 5.9 C 48.3 2.6000000000000005 45.599999999999994 0 42.4 0 L 37.9 0 C 34.6 0 32 2.7 32 5.9 L 32 12.600000000000001 C 32 13.900000000000002 31.3 15.000000000000002 30 15.500000000000002 C 28.8 16 27.5 15.800000000000002 26.5 14.800000000000002 L 21.6 10 C 20.5 8.9 19 8.3 17.400000000000002 8.3 C 15.800000000000002 8.3 14.300000000000002 8.9 13.200000000000003 10 L 10.100000000000003 13.1 C 7.800000000000003 15.399999999999999 7.800000000000003 19.2 10.100000000000003 21.5 L 14.900000000000002 26.3 C 15.800000000000002 27.2 16.1 28.5 15.600000000000001 29.8 C 15.100000000000001 31.1 14.000000000000002 31.8 12.700000000000001 31.8 L 5.9 31.8 C 2.6000000000000005 31.8 0 34.5 0 37.7 L 0 42.2 C 0 45.5 2.7 48.1 5.9 48.1 L 12.600000000000001 48.1 C 13.900000000000002 48.1 15.000000000000002 48.800000000000004 15.500000000000002 50.1 C 16 51.300000000000004 15.800000000000002 52.6 14.800000000000002 53.6 L 10 58.5 C 7.7 60.8 7.7 64.6 10 66.9 L 13.1 70 C 15.399999999999999 72.3 19.2 72.3 21.5 70 L 26.3 65.2 C 27.2 64.3 28.5 64 29.8 64.5 C 31 65 31.8 66.1 31.8 67.4 L 31.8 74.10000000000001 C 31.8 77.4 34.5 80.00000000000001 37.7 80.00000000000001 L 42.2 80.00000000000001 C 45.5 80.00000000000001 48.1 77.30000000000001 48.1 74.10000000000001 L 48.1 67.4 C 48.1 66.10000000000001 48.800000000000004 65 50.1 64.5 C 51.300000000000004 64 52.6 64.2 53.6 65.2 L 58.4 70 C 60.699999999999996 72.3 64.5 72.3 66.8 70 L 69.89999999999999 66.9 C 72.19999999999999 64.60000000000001 72.19999999999999 60.800000000000004 69.89999999999999 58.50000000000001 L 65.1 53.70000000000001 C 64.19999999999999 52.80000000000001 63.89999999999999 51.50000000000001 64.39999999999999 50.20000000000001 C 64.89999999999999 49.00000000000001 65.99999999999999 48.20000000000001 67.3 48.20000000000001 L 74 48.20000000000001 C 77.3 48.20000000000001 79.9 45.50000000000001 79.9 42.30000000000001 L 79.9 37.80000000000001 C 80.1 34.5 77.4 31.8 74.2 31.8 z" stroke-linecap="round" />
</g>
		<g transform="matrix(1 0 0 1 0.04 0)" id="WlaFUWMkrMGXDkiqPZK9B"  >
<path style="stroke: none; stroke-width: 1; stroke-dasharray: none; stroke-linecap: butt; stroke-dashoffset: 0; stroke-linejoin: miter; stroke-miterlimit: 4; fill: rgb(255,255,255); fill-rule: nonzero; opacity: 1;" vector-effect="non-scaling-stroke"  transform=" translate(-40, -40)" d="M 40 20.6 C 29.3 20.6 20.6 29.3 20.6 40 C 20.6 50.7 29.3 59.4 40 59.4 C 50.7 59.4 59.4 50.7 59.4 40 C 59.4 29.299999999999997 50.7 20.6 40 20.6 z" stroke-linecap="round" />
</g>
		<g transform="matrix(1 0 0 1 0.04 0)" id="tRz1S42PyMhLRmW3gsBLY"  >
<path style="stroke: none; stroke-width: 1; stroke-dasharray: none; stroke-linecap: butt; stroke-dashoffset: 0; stroke-linejoin: miter; stroke-miterlimit: 4; fill: rgb(179,181,179); fill-rule: nonzero; opacity: 1;" vector-effect="non-scaling-stroke"  transform=" translate(-40, -40)" d="M 55.6 40 C 55.6 48.6 48.6 55.6 40 55.6 C 31.4 55.6 24.4 48.6 24.4 40 C 24.4 31.4 31.4 24.4 40 24.4 C 48.6 24.4 55.6 31.4 55.6 40 z" stroke-linecap="round" />
</g>
</g>
</g>
<g transform="matrix(1.33 0 0 1.33 366.79 54.26)" id="XmFyvQLeHEgBbMBfygEdy"  >
<g style="" vector-effect="non-scaling-stroke"   >
		<g transform="matrix(1 0 0 1 0 0)" id="pE1G1QLHU4G1WrIex-l8f"  >
<path style="stroke: none; stroke-width: 1; stroke-dasharray: none; stroke-linecap: butt; stroke-dashoffset: 0; stroke-linejoin: miter; stroke-miterlimit: 4; fill: rgb(179,181,179); fill-rule: nonzero; opacity: 1;" vector-effect="non-scaling-stroke"  transform=" translate(-39.96, -40)" d="M 74.2 31.8 L 67.5 31.8 C 66.2 31.8 65.1 31.1 64.6 29.8 C 64.1 28.5 64.3 27.3 65.3 26.3 L 70.1 21.5 C 72.39999999999999 19.2 72.39999999999999 15.4 70.1 13.1 L 67 10 C 65.9 8.9 64.4 8.3 62.8 8.3 C 61.19999999999999 8.3 59.699999999999996 8.9 58.599999999999994 10 L 53.8 14.8 C 52.9 15.700000000000001 51.599999999999994 16 50.3 15.5 C 49.099999999999994 15 48.3 13.9 48.3 12.6 L 48.3 5.9 C 48.3 2.6000000000000005 45.599999999999994 0 42.4 0 L 37.9 0 C 34.6 0 32 2.7 32 5.9 L 32 12.600000000000001 C 32 13.900000000000002 31.3 15.000000000000002 30 15.500000000000002 C 28.8 16 27.5 15.800000000000002 26.5 14.800000000000002 L 21.6 10 C 20.5 8.9 19 8.3 17.400000000000002 8.3 C 15.800000000000002 8.3 14.300000000000002 8.9 13.200000000000003 10 L 10.100000000000003 13.1 C 7.800000000000003 15.399999999999999 7.800000000000003 19.2 10.100000000000003 21.5 L 14.900000000000002 26.3 C 15.800000000000002 27.2 16.1 28.5 15.600000000000001 29.8 C 15.100000000000001 31.1 14.000000000000002 31.8 12.700000000000001 31.8 L 5.9 31.8 C 2.6000000000000005 31.8 0 34.5 0 37.7 L 0 42.2 C 0 45.5 2.7 48.1 5.9 48.1 L 12.600000000000001 48.1 C 13.900000000000002 48.1 15.000000000000002 48.800000000000004 15.500000000000002 50.1 C 16 51.300000000000004 15.800000000000002 52.6 14.800000000000002 53.6 L 10 58.5 C 7.7 60.8 7.7 64.6 10 66.9 L 13.1 70 C 15.399999999999999 72.3 19.2 72.3 21.5 70 L 26.3 65.2 C 27.2 64.3 28.5 64 29.8 64.5 C 31 65 31.8 66.1 31.8 67.4 L 31.8 74.10000000000001 C 31.8 77.4 34.5 80.00000000000001 37.7 80.00000000000001 L 42.2 80.00000000000001 C 45.5 80.00000000000001 48.1 77.30000000000001 48.1 74.10000000000001 L 48.1 67.4 C 48.1 66.10000000000001 48.800000000000004 65 50.1 64.5 C 51.300000000000004 64 52.6 64.2 53.6 65.2 L 58.4 70 C 60.699999999999996 72.3 64.5 72.3 66.8 70 L 69.89999999999999 66.9 C 72.19999999999999 64.60000000000001 72.19999999999999 60.800000000000004 69.89999999999999 58.50000000000001 L 65.1 53.70000000000001 C 64.19999999999999 52.80000000000001 63.89999999999999 51.50000000000001 64.39999999999999 50.20000000000001 C 64.89999999999999 49.00000000000001 65.99999999999999 48.20000000000001 67.3 48.20000000000001 L 74 48.20000000000001 C 77.3 48.20000000000001 79.9 45.50000000000001 79.9 42.30000000000001 L 79.9 37.80000000000001 C 80.1 34.5 77.4 31.8 74.2 31.8 z" stroke-linecap="round" />
</g>
		<g transform="matrix(1 0 0 1 0.04 0)" id="K-5p1zyOjraUHcuEEJZYM"  >
<path style="stroke: none; stroke-width: 1; stroke-dasharray: none; stroke-linecap: butt; stroke-dashoffset: 0; stroke-linejoin: miter; stroke-miterlimit: 4; fill: rgb(255,255,255); fill-rule: nonzero; opacity: 1;" vector-effect="non-scaling-stroke"  transform=" translate(-40, -40)" d="M 40 20.6 C 29.3 20.6 20.6 29.3 20.6 40 C 20.6 50.7 29.3 59.4 40 59.4 C 50.7 59.4 59.4 50.7 59.4 40 C 59.4 29.299999999999997 50.7 20.6 40 20.6 z" stroke-linecap="round" />
</g>
		<g transform="matrix(1 0 0 1 0.04 0)" id="50L5kKy0huwBB07i1BKsA"  >
<path style="stroke: none; stroke-width: 1; stroke-dasharray: none; stroke-linecap: butt; stroke-dashoffset: 0; stroke-linejoin: miter; stroke-miterlimit: 4; fill: rgb(179,181,179); fill-rule: nonzero; opacity: 1;" vector-effect="non-scaling-stroke"  transform=" translate(-40, -40)" d="M 55.6 40 C 55.6 48.6 48.6 55.6 40 55.6 C 31.4 55.6 24.4 48.6 24.4 40 C 24.4 31.4 31.4 24.4 40 24.4 C 48.6 24.4 55.6 31.4 55.6 40 z" stroke-linecap="round" />
</g>
</g>
</g>
<g transform="matrix(2.63 0 0 1.46 249 312.79)" id="e08ICfIn6AjB2ljrRCaYh"  >
<path style="stroke: rgb(60,168,255); stroke-width: 0; stroke-dasharray: none; stroke-linecap: butt; stroke-dashoffset: 0; stroke-linejoin: miter; stroke-miterlimit: 4; fill: rgb(50,46,46); fill-rule: nonzero; opacity: 1;" vector-effect="non-scaling-stroke"  transform=" translate(0, 0)" d="M -32.89474 -32.89474 L 32.894729999999996 -32.89474 L 32.894729999999996 32.894729999999996 L -32.89474 32.894729999999996 z" stroke-linecap="round" />
</g>
<g transform="matrix(1.19 0 0 1.19 248.61 228.05)" id="pwhFhxBFnr373znGa43dB"  >
<path style="stroke: rgb(183,202,78); stroke-width: 0; stroke-dasharray: none; stroke-linecap: butt; stroke-dashoffset: 0; stroke-linejoin: miter; stroke-miterlimit: 4; fill: rgb(120,220,2); fill-rule: nonzero; opacity: 1;" vector-effect="non-scaling-stroke"  transform=" translate(0, 0)" d="M 0 -30.58195 C 16.88124 -30.58195 30.58195 -16.88124 30.58195 0 C 30.58195 16.88124 16.88124 30.58195 0 30.58195 C -16.88124 30.58195 -30.58195 16.88124 -30.58195 0 C -30.58195 -16.88124 -16.88124 -30.58195 0 -30.58195 z" stroke-linecap="round" />
</g>
</svg>